<?xml version="1.0" encoding="UTF-8"?>
<svg width="183px" height="42px" viewBox="0 0 183 42" version="1.1" xmlns="http://www.w3.org/2000/svg" xmlns:xlink="http://www.w3.org/1999/xlink">
    <!-- Generator: Sketch 53.2 (72643) - https://sketchapp.com -->
    <title>Group 18</title>
    <desc>Created with Sketch.</desc>
    <defs>
        <polygon id="path-1" points="0 42.5581395 183 42.5581395 183 0 0 0"></polygon>
    </defs>
    <g id="Symbols" stroke="none" stroke-width="1" fill="none" fill-rule="evenodd">
        <g id="footer" transform="translate(-96.000000, -35.000000)">
            <g id="Group-9">
                <g id="Group-18" transform="translate(96.000000, 35.000000)">
                    <path d="M40.0046512,41.7069767 L46.7342268,41.7069767 L46.7342268,35.8844821 L53.9414233,35.8844821 C58.7143057,35.8844821 60.4325581,33.1050408 60.4325581,29.5117298 C60.4325581,25.3418365 58.6666175,22.9813953 53.8937352,22.9813953 L40.0046512,22.9813953 L40.0046512,41.7069767 Z M46.7342268,27.3871134 L51.0779157,27.3871134 C52.7721392,27.3871134 53.4161142,27.964427 53.4161142,29.3801067 C53.4161142,30.744234 52.7721392,31.321182 51.0779157,31.321182 L46.7342268,31.321182 L46.7342268,27.3871134 Z" id="Fill-1" fill="#FFFFFF"></path>
                    <polygon id="Fill-3" fill="#FFFFFF" points="62.1348837 22.9813953 80.0093023 22.9813953 80.0093023 27.5446955 68.776184 27.5446955 68.776184 30.0627188 79.2085523 30.0627188 79.2085523 34.6260189 68.776184 34.6260189 68.776184 37.143311 80.0093023 37.143311 80.0093023 41.7069767 62.1348837 41.7069767"></polygon>
                    <path d="M82.5627907,41.7069767 L89.292736,41.7069767 L89.292736,35.8844821 L96.4988235,35.8844821 C101.272076,35.8844821 102.990698,33.1050408 102.990698,29.5117298 C102.990698,25.3418365 101.224757,22.9813953 96.451505,22.9813953 L82.5627907,22.9813953 L82.5627907,41.7069767 Z M89.292736,27.3871134 L93.6356856,27.3871134 C95.3299091,27.3871134 95.9746234,27.964427 95.9746234,29.3801067 C95.9746234,30.744234 95.3299091,31.321182 93.6356856,31.321182 L89.292736,31.321182 L89.292736,27.3871134 Z" id="Fill-5" fill="#FFFFFF"></path>
                    <path d="M109.465504,33.3020412 C106.252834,32.7643854 104.925282,30.7137912 104.925282,28.1519775 C104.925282,23.4109608 109.139477,22.1302326 114.540931,22.1302326 C121.944715,22.1302326 124.994732,24.2569202 125.22699,28.1258985 L117.591309,28.1258985 C117.591309,27.382826 117.194955,26.9212637 116.589423,26.6651181 C116.008056,26.3836079 115.262592,26.2810782 114.540931,26.2810782 C112.585127,26.2810782 111.90999,26.8190912 111.90999,27.5878855 C111.90999,28.1008912 112.119528,28.4334876 112.771222,28.5360173 L120.617523,29.8171028 C123.924322,30.3554731 125.972093,32.0466775 125.972093,35.1472188 C125.972093,39.6056536 122.666015,41.7069767 115.286034,41.7069767 C110.233689,41.7069767 104.716105,40.9378253 104.693023,35.5573376 L112.608208,35.5573376 C112.632011,36.1714441 112.840827,36.581563 113.306787,36.8637876 C113.795468,37.1202905 114.517489,37.248542 115.541735,37.248542 C117.591309,37.248542 118.149956,36.6333637 118.149956,35.7620398 C118.149956,35.2240267 117.846649,34.686371 116.961975,34.5320405 L109.465504,33.3020412 Z" id="Fill-7" fill="#FFFFFF"></path>
                    <mask id="mask-2" fill="white">
                        <use xlink:href="#path-1"></use>
                    </mask>
                    <g id="Clip-10"></g>
                    <polygon id="Fill-9" fill="#FFFFFF" mask="url(#mask-2)" points="127.674419 41.7069767 134.483721 41.7069767 134.483721 22.9813953 127.674419 22.9813953"></polygon>
                    <path d="M158.316279,33.9427257 C157.899687,36.351594 157.159995,38.298194 155.541269,39.6310559 C153.945468,40.9639178 151.448424,41.7069767 147.470921,41.7069767 C143.517418,41.7069767 136.186047,41.3997505 136.186047,31.9186047 C136.186047,22.4378161 143.517418,22.1302326 147.470921,22.1302326 C151.401857,22.1302326 157.46017,22.6939571 158.316279,29.9455689 L150.962341,29.9455689 C150.777507,28.6387855 149.991606,26.7425564 147.470921,26.7425564 C144.811253,26.7425564 143.123751,28.2033101 143.123751,31.9186047 C143.123751,35.6338992 144.765044,37.0946529 147.147104,37.0946529 C149.204631,37.0946529 150.430407,36.1461811 150.962341,33.9427257 L158.316279,33.9427257 Z" id="Fill-11" fill="#FFFFFF" mask="url(#mask-2)"></path>
                    <path d="M160.869767,31.9186047 C160.869767,41.3997505 168.057544,41.7069767 171.935235,41.7069767 C175.812223,41.7069767 183,41.3997505 183,31.9186047 C183,22.4378161 175.812223,22.1302326 171.935235,22.1302326 C168.057544,22.1302326 160.869767,22.4378161 160.869767,31.9186047 M167.67118,31.9186047 C167.67118,28.2033101 169.327277,26.7425564 171.935235,26.7425564 C174.542139,26.7425564 176.197182,28.2033101 176.197182,31.9186047 C176.197182,35.6338992 174.542139,37.0946529 171.935235,37.0946529 C169.327277,37.0946529 167.67118,35.6338992 167.67118,31.9186047" id="Fill-12" fill="#FFFFFF" mask="url(#mask-2)"></path>
                    <path d="M30.3364275,24.5399853 C29.6487121,25.3668803 28.7835334,26.2012827 27.7691986,26.9920702 C25.9049273,16.4315531 18.0210595,7.19735685 12.4496574,4.50217275 L12.3306228,4.58475499 C17.933961,9.11319339 24.6194983,17.906951 27.2186633,27.4067689 C25.9760578,28.3087386 24.5374805,29.1377785 22.949747,29.8141664 C17.6603264,23.8761099 12.7298243,12.4243481 11.1410021,5.1588982 L10.9787811,5.20608805 C11.0154351,12.2591836 16.1012629,24.2343238 22.305218,30.0758556 C20.9276097,30.6106739 19.4480236,31.0278751 17.893315,31.2763369 C11.9466634,28.9572416 7.71440113,21.5294872 7.71440113,13.9215534 C7.71440113,8.95339138 9.25314167,5.88176095 9.55072828,5.25184791 L9.42298378,5.20251306 C9.06333947,5.7384039 6.80930233,8.81003433 6.80930233,14.1718026 C6.80930233,22.7735833 11.1181388,29.3458429 16.83906,31.4171914 C14.8818836,31.6274008 12.8216407,31.563766 10.7098644,31.1329798 L10.6681297,31.2648969 C11.2789081,31.4861887 13.355482,32.344186 16.5211504,32.344186 C23.6846408,32.344186 28.5269557,27.9623222 30.4765109,24.6336501 L30.3364275,24.5399853 Z M30.9631739,23.4228013 C31.3903196,14.6386962 23.6955281,4.74777448 13.2056,3.52477079 L13.2226568,3.40465116 C23.5641545,3.40465116 31.4930233,12.8297518 31.4930233,20.2657287 C31.4821359,21.8133413 31.3576576,22.7721534 31.1362822,23.4678462 L30.9631739,23.4228013 Z" id="Fill-13" fill="#FFFFFF" mask="url(#mask-2)"></path>
                    <path d="M17.9357619,2.34475376 C17.9357619,4.89738175 12.7764083,8.01819931 8.46420832,8.01819931 C6.55944594,8.01819931 5.52885503,7.3056808 5.52885503,6.12941684 C5.52885503,3.53927009 10.7465104,0.472533624 14.7920863,0.472533624 C17.4291762,0.472533624 17.9357619,1.74715759 17.9357619,2.34475376 M15.8127233,0 C10.4926843,0 4.25581395,3.64743229 4.25581395,6.9818702 C4.25581395,8.27136647 5.49792663,9.3627907 8.0674717,9.3627907 C14.0330965,9.3627907 19.5767442,5.46658534 19.5767442,2.43905768 C19.5767442,0.845017211 17.9652683,0 15.8127233,0" id="Fill-14" fill="#FFFFFF" mask="url(#mask-2)"></path>
                    <path d="M1.60780902,9.25676514 C1.4571271,9.51520244 0.851162791,10.6852702 0.851162791,11.8840927 C0.851162791,14.1077895 3.12829394,16.172093 7.31646028,16.172093 C15.3748865,16.172093 24.6837209,10.321044 24.6837209,4.88995567 C24.6837209,2.4518411 22.3443751,1.12592993 20.7195995,0.851162791 L20.6893912,0.945946802 C21.1946612,1.10463015 23.0449201,1.95236131 23.0449201,4.12564864 C23.0449201,8.45340851 14.8261022,14.348832 6.63749256,14.348832 C3.50374007,14.348832 1.5283324,12.821993 1.5283324,10.5982961 C1.5283324,9.89611347 1.67685659,9.4328433 1.71677471,9.2986547 L1.60780902,9.25676514 Z" id="Fill-15" fill="#FFFFFF" mask="url(#mask-2)"></path>
                    <path d="M28.2287976,5.10697674 C28.451304,5.27887441 29.7906977,6.4072283 29.7906977,8.5419916 C29.7906977,15.8226657 18.511841,22.9813953 8.54116186,22.9813953 C2.59374557,22.9813953 -0.117347032,20.0121203 0.00388806341,17.3756215 L0.110241007,17.3756215 C0.343273735,18.7434568 2.2735978,21.1929985 7.47763243,21.1929985 C17.4621048,21.1929985 28.6095629,13.7874415 28.6095629,7.29757005 C28.6095629,6.18390826 28.310831,5.49007346 28.1413196,5.1830084 L28.2287976,5.10697674 Z" id="Fill-16" fill="#FFFFFF" mask="url(#mask-2)"></path>
                    <path d="M32.0617766,11.9162791 C32.1070754,12.0629131 32.344186,12.727141 32.344186,13.7675779 C32.344186,21.4835397 21.2144941,28.0883721 11.5361317,28.0883721 C6.55503808,28.0883721 3.95354468,25.6967319 3.40465116,24.7266373 L3.4931253,24.6608445 C4.87119839,25.8535149 7.58558477,26.7567668 10.7547282,26.7567668 C19.3030989,26.7567668 32.0582376,20.3304149 31.9435752,11.9428762 L32.0617766,11.9162791 Z" id="Fill-17" fill="#FFFFFF" mask="url(#mask-2)"></path>
                </g>
            </g>
        </g>
    </g>
</svg>