<?xml version="1.0" encoding="UTF-8"?>
<svg width="367px" height="18px" viewBox="0 0 367 18" version="1.1" xmlns="http://www.w3.org/2000/svg" xmlns:xlink="http://www.w3.org/1999/xlink">
    <!-- Generator: Sketch 53.2 (72643) - https://sketchapp.com -->
    <title>Mask</title>
    <desc>Created with Sketch.</desc>
    <g id="Desktop" stroke="none" stroke-width="1" fill="none" fill-rule="evenodd">
        <g id="Receipt" transform="translate(-395.000000, -601.000000)" fill="#CF4520">
            <path d="M752.292893,601.292893 L752.12149,601.465563 C751.731213,601.85584 751.73093,602.488517 752.120857,602.879143 L757.69125,608.460786 L396,608.460786 C395.447715,608.460786 395,608.908502 395,609.460786 L395,609.710786 C395,610.263071 395.447715,610.710786 396,610.710786 L757.69125,610.710786 L752.120857,616.29243 C751.73093,616.683056 751.731213,617.315733 752.12149,617.70601 L752.292893,617.87868 C752.683418,618.269204 753.316582,618.269204 753.707107,617.87868 L762,609.585786 L753.707107,601.292893 C753.316582,600.902369 752.683418,600.902369 752.292893,601.292893 Z" id="Mask" transform="translate(578.500000, 609.585786) scale(-1, 1) rotate(180.000000) translate(-578.500000, -609.585786) "></path>
        </g>
    </g>
</svg>