<?xml version="1.0" encoding="UTF-8"?>
<svg width="407px" height="78px" viewBox="0 0 407 78" version="1.1" xmlns="http://www.w3.org/2000/svg" xmlns:xlink="http://www.w3.org/1999/xlink">
    <!-- Generator: Sketch 53.2 (72643) - https://sketchapp.com -->
    <title>tosticentros logo</title>
    <desc>Created with Sketch.</desc>
    <g id="Desktop" stroke="none" stroke-width="1" fill="none" fill-rule="evenodd">
        <g id="Welcome-Screen" transform="translate(-211.000000, -195.000000)">
            <g id="Group-6" transform="translate(122.000000, 72.000000)">
                <g id="Group-4" transform="translate(0.000000, 38.000000)">
                    <g id="Group-3" transform="translate(89.000000, 58.000000)">
                        <g id="Group" transform="translate(0.000000, 22.000000)">
                            <g id="tosticentros-logo" transform="translate(0.000000, 5.000000)">
                                <g id="Group-35">
                                    <path d="M393.132682,24.5717333 C387.795981,18.6203333 380.662271,15.3426 373.04568,15.3426 L372.938756,15.3426 C366.029242,15.3694667 359.536212,18.1038 354.422843,23.0724 L354.422843,14.8676667 L348.957661,14.8676667 C346.019845,14.8676667 343.45885,15.4648 341.345381,16.2578 L341.345381,15.3044667 L319.559672,15.3044667 L319.559672,17.602 L314.359212,16.6174667 C315.687998,13.6188 317.31686,8.63286667 315.570727,5.0076 L315.524163,4.90966667 L315.473288,4.8152 C313.046809,0.234 305.561286,0 304.08936,0 C297.934347,0 296.328767,3.68333333 295.924354,5.27106667 C295.398358,7.3294 295.392322,10.3020667 295.762244,13.1057333 L286.568528,11.3680667 L283.406517,18.3802667 C280.015138,16.0021333 275.505371,14.508 271.353453,14.508 C269.119265,14.508 267.179117,14.82 265.493343,15.3426 L265.493343,15.1892 L243.085924,15.1892 L243.085924,21.2099333 C238.182091,17.4217333 232.297837,15.3122667 226.123854,15.3122667 C220.667294,15.3122667 215.309036,17.0057333 210.631123,20.1968 C208.086511,21.9318667 205.857496,24.063 203.974258,26.5078667 C202.480775,24.4833333 200.445775,22.477 198.13743,20.8147333 C194.767608,18.3863333 189.201538,15.4934 181.822076,15.4934 C179.824155,15.4934 177.784843,15.7083333 175.762778,16.1390667 C168.022879,17.7805333 161.541059,22.3660667 157.207199,28.5098667 C154.975597,26.0511333 151.535068,24.3386 147.503871,23.8567333 L141.917968,11.479 L132.688036,12.974 C133.040712,10.205 133.026053,7.28953333 132.509542,5.25113333 C132.099093,3.67466667 130.486614,0 124.348847,0 C122.873472,0 115.387087,0.234 112.95371,4.8282 L112.905422,4.92266667 L112.858858,5.018 C111.225684,8.40926667 112.55447,12.9965333 113.819447,16.0281333 L107.775669,17.0057333 L106.295983,17.2432 C102.336356,15.6702 98.4991737,14.989 93.7867691,14.989 C85.6459068,14.989 79.1718475,18.7512 75.8296186,24.8256667 C75.7571864,24.7407333 75.6890657,24.6558 75.6157712,24.5717333 C70.2790699,18.6203333 63.1462225,15.3426 55.5287691,15.3426 L55.4218453,15.3426 C52.6814936,15.3538667 50.0075381,15.7976 47.4577521,16.6296 L45.7564576,5.8214 L2.80329873,11.2415333 L0,34.4136 L11.6529619,32.9437333 L13.0697013,70.4946667 L13.3318369,76.8326 L34.4673814,74.1684667 L34.8364407,67.3972 C35.0399407,67.6398667 35.2399915,67.8842667 35.4521144,68.1191333 C40.7914025,74.0748667 47.92425,77.3543333 55.5391165,77.3543333 L55.6331059,77.3543333 L55.6460403,77.3543333 C62.6003941,77.324 68.9614936,74.5047333 73.8653263,69.8741333 L74.6387987,70.5874 C78.9045381,74.5472 85.5519174,76.8187333 92.8744682,76.8187333 C105.519924,76.8187333 114.016049,68.6478 114.016049,56.4876 C114.016049,50.3438 111.703392,45.7738667 108.566388,42.2482667 L108.670725,41.5688 L113.51161,40.456 L117.175472,75.4572 L138.213578,75.2336 L138.205818,74.9987333 L154.95404,74.9987333 L156.390612,63.9296667 C157.931521,66.3407333 159.786303,68.5221333 161.924778,70.3854667 C167.150244,74.9415333 173.814006,77.4505333 180.686443,77.4505333 C182.602447,77.4505333 184.541733,77.2555333 186.451701,76.8759333 C194.044148,75.3584 199.925816,71.9532667 204.014786,66.7212 C209.617934,73.5687333 218.118371,77.6784667 227.124108,77.6784667 C232.251273,77.6784667 237.19822,76.3412 241.432917,73.8174667 C242.007201,73.4708 242.557341,73.1345333 243.085924,72.7956667 L243.085924,75.9434 L266.314242,75.9434 L268.85368,75.9434 L292.079411,75.9434 L292.079411,75.2518 L311.258424,75.4572 L314.861926,41.0323333 L319.559672,42.5368667 L319.559672,75.9434 L342.060218,75.9434 L342.060218,40.1639333 C342.060218,38.7278667 342.497398,38.4479333 342.780229,38.2650667 C343.121695,38.0449333 344.066763,37.5786667 346.023294,37.466 C345.247235,40.3502667 344.843684,43.3758 344.856619,46.4689333 C344.885074,54.6286 347.769428,62.3176667 352.969888,68.1191333 C358.305727,74.0748667 365.440299,77.3543333 373.05689,77.3543333 L373.148292,77.3543333 L373.162951,77.3543333 C388.704833,77.2876 401.302862,63.3238667 401.243364,46.2306 C401.216633,38.0692 398.334004,30.3784 393.132682,24.5717333" id="Fill-1" fill="#FEFEFE"></path>
                                    <path d="M135.878675,35.2603333 C135.878675,31.9210667 140.038353,29.2118667 145.168105,29.2118667 C150.298719,29.2118667 154.458397,31.9210667 154.458397,35.2603333 C154.458397,38.6004667 150.298719,41.3105333 145.168105,41.3105333 C140.038353,41.3105333 135.878675,38.6004667 135.878675,35.2603333" id="Fill-3" fill="#060100"></path>
                                    <polygon id="Fill-5" fill="#231F20" points="41.1852958 11.9356467 7.71644407 16.1615133 6.27297373 28.0851133 16.8894653 26.7478467 18.5312619 70.26838 18.5476453 70.6384467 29.2589886 69.2873133 31.6785691 24.88018 42.9943763 23.4493133"></polygon>
                                    <path d="M145.16845,46.7715733 C141.971085,46.7715733 138.530556,45.3849067 137.194009,43.37164 L136.874962,43.37164 L140.270653,69.5051067 L150.153337,69.5051067 L153.54989,43.37164 L153.141166,43.37164 C151.804619,45.3849067 148.367539,46.7715733 145.16845,46.7715733" id="Fill-7" fill="#231F20"></path>
                                    <polygon id="Fill-9" fill="#231F20" points="142.456122 25.97244 138.663779 17.5683733 108.623385 22.4347067 108.369872 22.47284 106.839311 36.3525067 118.304294 33.71784 122.092326 69.9107067 132.55533 69.7971733 131.195501 30.50944"></polygon>
                                    <path d="M121.730854,17.46654 L121.730854,17.4682733 L121.730854,17.46654 Z M121.730854,17.80974 L121.92142,17.8088733 L122.267198,17.80974 C123.723602,17.80974 125.475772,17.6858067 126.11559,16.7264067 C127.018405,15.3804733 127.933293,9.44987333 127.216732,6.63407333 C127.021854,5.87747333 126.056954,5.49527333 124.348761,5.49527333 C122.13613,5.49527333 118.391213,6.25447333 117.778126,7.41060667 C116.95464,9.12140667 118.567982,13.9808067 120.014039,16.29654 C120.649545,17.31314 121.210895,17.80974 121.730854,17.80974 L121.730854,17.80974 Z" id="Fill-11" fill="#231F20"></path>
                                    <polygon id="Fill-13" fill="#EC1D24" points="289.775205 17.5638667 285.980275 25.9722667 297.24262 30.5101333 295.875893 69.7978667 306.344071 69.9105333 310.127792 33.7540667 317.153715 36.0013333 323.340633 23.907"></polygon>
                                    <path d="M306.706836,17.46654 L306.706836,17.4682733 L306.706836,17.46654 Z M306.165319,17.80974 L306.7008,17.80974 L306.706836,17.80974 C307.223346,17.80974 307.785558,17.31314 308.423651,16.29394 C309.867122,13.9790733 311.477014,9.12140667 310.650079,7.39847333 C310.043891,6.25447333 306.299836,5.49527333 304.089791,5.49527333 C302.379874,5.49527333 301.411524,5.87747333 301.220096,6.63407333 C300.50181,9.44987333 301.415836,15.3804733 302.320376,16.7264067 C302.958469,17.6858067 304.712363,17.80974 306.165319,17.80974 L306.165319,17.80974 Z" id="Fill-15" fill="#EC1D24"></path>
                                    <path d="M62.436818,37.4879267 C64.3166061,39.8339933 65.3565256,42.96526 65.3677354,46.30106 C65.3746337,49.6403267 64.3528222,52.78026 62.4920044,55.14366 C60.6458456,57.4793267 58.1891867,58.7749933 55.5428244,58.7923267 C52.9361273,58.7923267 50.4837799,57.5235267 48.6341718,55.2121267 C46.7561083,52.8617267 45.7127396,49.7347933 45.7006676,46.4033267 C45.6816972,39.5375933 50.0767799,33.9319933 55.49971,33.9025267 L55.5229917,33.58186 L55.5229917,33.9025267 C58.1262396,33.9025267 60.5820362,35.17566 62.436818,37.4879267 M71.555515,28.2501267 C67.2690807,23.46786 61.5753922,20.8349267 55.5281655,20.8349267 L55.4479727,20.8349267 C49.3697036,20.8609267 43.6648053,23.5475933 39.3878561,28.39226 C35.1203922,33.2273933 32.782729,39.6363933 32.8068731,46.44666 C32.8310172,53.2543267 35.212657,59.6451267 39.5146125,64.44386 C43.8010468,69.22526 49.4912862,71.8581933 55.5393752,71.8581933 L55.6212926,71.8581933 C68.1529261,71.80446 78.3106803,60.3167933 78.2632544,46.25166 C78.2391104,39.4431267 75.8566083,33.0505933 71.555515,28.2501267" id="Fill-17" fill="#231F20"></path>
                                    <path d="M379.955022,37.4879267 C381.834811,39.8339933 382.873006,42.96526 382.883353,46.30106 C382.891114,49.6403267 381.867578,52.78026 380.008484,55.14366 C378.16405,57.4793267 375.703942,58.7749933 373.056717,58.7923267 C370.451745,58.7923267 367.997673,57.5235267 366.149789,55.2121267 C364.272588,52.8617267 363.228357,49.7347933 363.214561,46.4033267 C363.19559,39.5375933 367.591535,33.9319933 373.015328,33.9025267 L373.037747,33.58186 L373.037747,33.9025267 C375.643582,33.9025267 378.098516,35.17566 379.955022,37.4879267 M389.072857,28.2501267 C384.782974,23.46786 379.093597,20.8349267 373.045508,20.8349267 L372.96359,20.8349267 C366.886183,20.8609267 361.180423,23.5475933 356.903474,28.39226 C352.636872,33.2273933 350.298347,39.6363933 350.322491,46.44666 C350.346635,53.2543267 352.729999,59.6451267 357.03023,64.44386 C361.317527,69.22526 367.005179,71.8581933 373.056717,71.8581933 L373.136048,71.8581933 C385.668544,71.80446 395.824573,60.3167933 395.777147,46.25166 C395.754728,39.4431267 393.372226,33.0505933 389.072857,28.2501267" id="Fill-19" fill="#EC1D24"></path>
                                    <path d="M97.7821811,40.4603333 C92.7308972,37.2467333 91.3486494,35.8210667 91.3486494,33.8372667 C91.3486494,32.1446667 92.7257235,30.9625333 94.7012256,30.9625333 C97.581268,30.9625333 100.338865,31.8352667 103.639704,33.7878667 L104.286421,34.1674667 L106.003236,23.0854 L105.65056,22.9276667 C101.804755,21.1926 98.3685371,20.4819333 93.7863379,20.4819333 C84.8306133,20.4819333 78.8161536,26.3042 78.8161536,34.9665333 C78.8161536,42.2994 83.7863824,46.5278667 89.1558506,50.0023333 C94.4856536,53.5010667 95.947232,55.1260667 95.947232,57.5458 C95.947232,59.6431333 94.4192574,60.8452 91.7504756,60.8452 C88.5341409,60.8452 85.1634566,59.8086667 80.4708845,57.3750667 L79.8621091,57.0596 L78.140982,66.3598 L78.3470689,66.5496 C81.567715,69.5396 87.0001303,71.3240667 92.8748994,71.3240667 C102.543736,71.3240667 108.548711,65.6404667 108.548711,56.4876 C108.548711,48.4345333 103.108535,43.8672 97.7821811,40.4603333" id="Fill-21" fill="#231F20"></path>
                                    <path d="M202.943479,57.6184267 C199.842691,65.3846267 193.912736,69.7838267 185.389017,71.4876933 C172.016653,74.1544267 159.753191,65.18356 157.259454,51.4070267 C154.788998,37.8046933 163.70592,24.3106933 176.892892,21.5156933 C190.410121,18.64876 199.50295,28.21156 200.949007,32.15576 L189.659931,39.5804933 C187.652524,36.6962267 184.419806,33.87956 178.933928,34.9750267 C172.582314,35.8962933 169.138335,42.57396 170.348125,49.2490267 C171.571712,56.01076 176.821322,58.9036933 183.20053,58.51716 C188.191454,58.2146933 190.525668,54.51056 190.967159,52.83356 L202.943479,57.6184267 Z" id="Fill-23" fill="#EC1D24"></path>
                                    <path d="M232.435544,34.1880067 C230.5799,32.1366067 225.212157,29.3858067 219.688339,33.5908733 C214.029142,37.8956067 213.573854,43.6814733 214.500813,46.3724733 L232.435544,34.1880067 Z M246.954752,61.4464067 C244.630023,65.0266067 242.563118,66.75214 238.644019,69.08954 C228.223267,75.3078733 213.091835,72.0544067 206.130582,60.2148733 C199.597888,49.08774 202.468445,32.4070067 213.699748,24.74394 C224.924152,17.08174 239.221752,20.99474 246.347701,33.12634 C247.284146,34.7062733 247.094443,34.95934 247.508341,35.9768067 L218.671701,55.80874 C220.791205,60.2486733 228.005108,61.3008067 232.880485,59.6498067 C236.757332,58.3376733 239.750335,55.9430733 242.301845,51.6374733 L246.954752,61.4464067 Z" id="Fill-25" fill="#EC1D24"></path>
                                    <path d="M248.554641,20.68352 L260.026523,20.68352 L260.026523,26.8593867 L260.178285,26.8593867 C261.435501,24.4864533 264.028402,19.99972 271.35354,19.99972 C275.279538,19.99972 279.651338,21.93152 281.873455,24.2212533 C284.097296,26.5040533 286.61259,30.3719867 286.61259,39.9512533 L286.61259,70.4492533 L274.319811,70.4492533 L274.319811,42.1430533 C274.319811,38.71452 274.319811,32.03512 267.874207,32.03512 C260.848283,32.03512 260.848283,39.2431867 260.848283,42.2314533 L260.848283,70.4492533 L248.554641,70.4492533 L248.554641,20.68352 Z" id="Fill-27" fill="#EC1D24"></path>
                                    <path d="M325.024595,20.7986133 L335.881665,20.7986133 L335.881665,27.16428 L336.018769,27.16428 C337.027646,24.81128 342.060822,20.3618133 348.957402,20.3618133 L348.957402,32.0349467 C343.305966,31.5617467 336.596502,32.83748 336.596502,40.16428 L336.596502,70.44908 L325.024595,70.44908 L325.024595,20.7986133 Z" id="Fill-29" fill="#EC1D24"></path>
                                    <path d="M402.622077,13.8636333 C400.255958,13.8636333 398.258899,15.6905667 398.258899,18.1701 C398.258899,20.6747667 400.255958,22.5025667 402.622077,22.5025667 C404.967501,22.5025667 406.96456,20.6747667 406.96456,18.1701 C406.96456,15.6905667 404.967501,13.8636333 402.622077,13.8636333" id="Fill-31" fill="#FEFEFE"></path>
                                    <path d="M402.611988,17.9439 C403.097456,17.9439 403.538086,17.9101 403.538086,17.3216333 C403.538086,16.8467 403.108666,16.7609 402.707702,16.7609 L401.92302,16.7609 L401.92302,17.9439 L402.611988,17.9439 Z M401.92302,20.0941 L401.347874,20.0941 L401.347874,16.2695 L402.795656,16.2695 C403.695022,16.2695 404.1391,16.6023 404.1391,17.3580333 C404.1391,18.0409667 403.707956,18.3399667 403.154367,18.4093 L404.233952,20.0941 L403.589823,20.0941 L402.586982,18.4370333 L401.92302,18.4370333 L401.92302,20.0941 Z M402.619749,20.9460333 C404.113232,20.9460333 405.291117,19.7691 405.291117,18.1727 C405.291117,16.6023 404.113232,15.4175667 402.619749,15.4175667 C401.10902,15.4175667 399.931997,16.6023 399.931997,18.1727 C399.931997,19.7691 401.10902,20.9460333 402.619749,20.9460333 L402.619749,20.9460333 Z M399.272346,18.1727 C399.272346,16.2695 400.804632,14.8655 402.619749,14.8655 C404.419344,14.8655 405.953355,16.2695 405.953355,18.1727 C405.953355,20.0941 404.419344,21.4981 402.619749,21.4981 C400.804632,21.4981 399.272346,20.0941 399.272346,18.1727 L399.272346,18.1727 Z" id="Fill-33" fill="#231F20"></path>
                                </g>
                            </g>
                        </g>
                    </g>
                </g>
            </g>
        </g>
    </g>
</svg>